<?xml version="1.0" standalone="no"?>
<!DOCTYPE svg PUBLIC "-//W3C//DTD SVG 20010904//EN"
 "http://www.w3.org/TR/2001/REC-SVG-20010904/DTD/svg10.dtd">
<svg version="1.0" xmlns="http://www.w3.org/2000/svg"
 width="128.000000pt" height="128.000000pt" viewBox="0 0 128.000000 128.000000"
 preserveAspectRatio="xMidYMid meet">
<metadata>
Created by potrace 1.14, written by Peter Selinger 2001-2017
</metadata>
<g transform="translate(0.000000,128.000000) scale(0.100000,-0.100000)"
fill="#000000" stroke="none">
<path d="M35 645 c0 -267 2 -485 5 -485 3 0 39 28 80 61 157 128 171 141 160
154 -7 8 -5 12 5 12 8 0 12 -4 9 -9 -12 -20 13 -6 30 17 10 14 25 25 32 25 8
0 14 7 14 15 0 8 5 15 10 15 6 0 10 5 10 10 0 6 -8 5 -19 -2 -11 -7 -17 -16
-15 -20 3 -4 -2 -8 -11 -8 -10 0 -13 5 -9 12 4 7 3 8 -5 4 -6 -4 -8 -12 -5
-18 5 -7 1 -9 -9 -5 -10 4 -17 1 -17 -5 0 -6 -3 -8 -6 -5 -4 3 -26 -5 -50 -19
l-44 -26 0 236 c0 130 2 236 4 236 5 0 125 -78 606 -395 355 -233 420 -276
433 -281 9 -3 12 100 11 476 -1 264 -3 482 -6 485 -9 9 -248 -196 -242 -207 5
-7 1 -9 -9 -5 -15 6 -42 -15 -32 -25 3 -3 -9 -11 -26 -18 -28 -12 -30 -15 -13
-21 23 -8 117 39 107 54 -3 6 -1 7 5 3 6 -4 21 -2 32 4 20 11 20 8 20 -225 0
-129 -2 -235 -5 -235 -3 0 -92 57 -198 127 -106 69 -241 159 -302 198 -60 40
-206 136 -324 214 -118 77 -217 141 -220 141 -3 0 -6 -218 -6 -485z m955 255
c0 -5 -5 -10 -11 -10 -5 0 -7 5 -4 10 3 6 8 10 11 10 2 0 4 -4 4 -10z m-20
-34 c0 -2 -7 -7 -16 -10 -8 -3 -12 -2 -9 4 6 10 25 14 25 6z"/>
</g>
</svg>
